#tb 0: 1/5
#media_type 0: video
#codec_id 0: rawvideo
#dimensions 0: 40x40
#sar 0: 1/1
0,          0,          0,        1,     4800, 0xf2a15b15
0,          1,          1,        1,     4800, 0x78c29dcf
0,          2,          2,        1,     4800, 0x28509d6e
0,          3,          3,        1,     4800, 0xb9d0841a
0,          4,          4,        1,     4800, 0x53ac6a72
0,          5,          5,        1,     4800, 0x6e6a6587
0,          6,          6,        1,     4800, 0x6de46287
0,          7,          7,        1,     4800, 0x7e0d5b95
0,          8,          8,        1,     4800, 0xf30f5a1b
0,          9,          9,        1,     4800, 0x84505420
